<?xml version="1.0" standalone="no"?>
<!DOCTYPE svg PUBLIC "-//W3C//DTD SVG 20010904//EN"
 "http://www.w3.org/TR/2001/REC-SVG-20010904/DTD/svg10.dtd">
<svg version="1.0" xmlns="http://www.w3.org/2000/svg"
 width="500.000000pt" height="500.000000pt" viewBox="0 0 500.000000 500.000000"
 preserveAspectRatio="xMidYMid meet">
<metadata>
Created by potrace 1.14, written by Peter Selinger 2001-2017
</metadata>
<g transform="translate(0.000000,500.000000) scale(0.100000,-0.100000)"
fill="#000000" stroke="none">
<path d="M793 4885 c-22 -9 -33 -22 -38 -44 -4 -17 -11 -31 -16 -31 -5 0 -9
-5 -9 -11 0 -18 -59 -137 -76 -154 -11 -10 -18 -42 -21 -98 -3 -58 -13 -104
-34 -156 -16 -40 -29 -79 -29 -85 0 -6 -8 -19 -17 -27 -52 -47 -123 -129 -131
-150 -8 -21 -9 -55 -3 -107 1 -18 99 -110 129 -122 44 -18 55 -71 48 -215 -6
-125 -11 -181 -21 -235 -2 -14 -7 -47 -11 -75 -3 -27 -10 -52 -14 -55 -4 -3
-10 -25 -13 -50 -3 -25 -10 -82 -17 -128 -6 -46 -8 -122 -6 -170 8 -138 29
-327 37 -332 4 -3 10 -27 13 -55 7 -47 31 -186 40 -230 29 -135 42 -185 48
-185 5 0 8 -13 8 -30 0 -16 -4 -30 -10 -30 -6 0 -10 -82 -10 -227 0 -327 -28
-800 -56 -958 -8 -44 -17 -152 -20 -240 -6 -144 -5 -168 15 -243 20 -79 41
-124 66 -147 6 -5 20 -23 33 -39 25 -33 157 -126 178 -126 9 0 23 -4 32 -9 9
-5 90 -11 180 -15 89 -3 206 -11 260 -17 101 -12 302 -6 375 10 68 16 910 20
1135 6 304 -19 525 3 658 66 71 33 150 104 184 167 13 23 27 42 32 42 4 0 8 8
9 18 3 86 94 216 224 317 21 17 59 48 84 71 25 22 62 47 81 54 19 7 42 19 51
27 8 7 21 13 27 13 6 0 16 8 21 19 6 10 22 22 36 25 14 4 33 14 43 24 18 18
58 46 100 72 37 23 51 48 32 60 -12 8 -8 17 27 50 60 57 77 117 70 239 -5 90
-29 181 -47 181 -4 0 -17 15 -28 33 -25 44 -126 121 -188 145 -27 11 -83 25
-124 31 -41 7 -86 16 -100 21 -70 24 -79 22 -120 -19 -22 -22 -40 -47 -40 -56
0 -9 -9 -15 -22 -16 -13 -1 -48 -2 -78 -3 -79 -3 -115 -26 -202 -128 -16 -19
-36 -28 -67 -32 -71 -9 -72 -14 -24 -107 2 -3 -8 -11 -22 -17 -16 -7 -25 -20
-25 -34 0 -15 -9 -27 -22 -33 -13 -6 -23 -19 -24 -30 0 -11 -6 -31 -13 -44 -9
-15 -11 -40 -7 -70 7 -52 -4 -74 -62 -126 -54 -47 -56 -47 -129 -11 -155 79
-372 106 -513 66 -41 -12 -97 -25 -123 -30 -67 -12 -132 -46 -145 -74 -13 -30
-59 -41 -238 -60 -88 -10 -221 -14 -361 -13 l-223 2 -5 25 c-5 26 -29 189 -40
275 -4 28 -10 52 -14 55 -4 3 -15 75 -25 161 -15 142 -56 336 -74 349 -16 12
-64 175 -77 262 -4 27 -11 48 -15 48 -4 0 -10 39 -14 88 -13 174 -56 361 -86
382 -16 11 -69 138 -75 180 -4 25 -10 47 -14 50 -8 5 -25 141 -59 445 -19 176
-22 430 -9 750 7 166 6 219 -8 310 -9 60 -20 112 -24 115 -8 5 -26 76 -36 140
-3 19 -10 60 -16 91 -5 31 -9 91 -8 133 1 42 -1 80 -5 83 -12 12 -142 11 -173
-2z"/>
</g>
</svg>
